<svg width="29" height="30" viewBox="0 0 29 30" fill="none" xmlns="http://www.w3.org/2000/svg">
<path fill-rule="evenodd" clip-rule="evenodd" d="M12.7614 0.666626C13.3269 0.666626 13.7854 1.11434 13.7854 1.66663V1.99996H14.9636C17.329 1.99996 19.2466 3.87261 19.2466 6.18263V12.3333C19.2466 16.9638 15.6658 20.7775 11.0609 21.2777C11.2097 24.6466 14.0536 27.3333 17.54 27.3333C21.1216 27.3333 24.0252 24.4978 24.0252 21V18.5286C22.4493 18.0933 21.2946 16.6783 21.2946 15C21.2946 12.9749 22.9755 11.3333 25.0491 11.3333C27.1228 11.3333 28.8037 12.9749 28.8037 15C28.8037 16.6783 27.649 18.0933 26.0731 18.5286V21C26.0731 25.6023 22.2527 29.3333 17.54 29.3333C12.9228 29.3333 9.16211 25.7521 9.01148 21.2789C4.40136 20.7835 0.814941 16.9674 0.814941 12.3333V6.18263C0.814941 3.87261 2.7325 1.99996 5.09792 1.99996H6.27617V1.66663C6.27617 1.11434 6.73462 0.666626 7.30015 0.666626C7.86568 0.666626 8.32413 1.11434 8.32413 1.66663V4.33329C8.32413 4.88558 7.86568 5.33329 7.30015 5.33329C6.73462 5.33329 6.27617 4.88558 6.27617 4.33329V3.99996H5.09792C3.86355 3.99996 2.8629 4.97718 2.8629 6.18263V12.3333C2.8629 16.1993 6.07206 19.3333 10.0308 19.3333C13.9895 19.3333 17.1986 16.1993 17.1986 12.3333V6.18263C17.1986 4.97718 16.198 3.99996 14.9636 3.99996H13.7854V4.33329C13.7854 4.88558 13.3269 5.33329 12.7614 5.33329C12.1959 5.33329 11.7374 4.88558 11.7374 4.33329V1.66663C11.7374 1.11434 12.1959 0.666626 12.7614 0.666626ZM23.3425 15C23.3425 14.0795 24.1066 13.3333 25.0491 13.3333C25.9917 13.3333 26.7558 14.0795 26.7558 15C26.7558 15.9204 25.9917 16.6666 25.0491 16.6666C24.1066 16.6666 23.3425 15.9204 23.3425 15Z" fill="#0097B3"/>
</svg>
