<?xml version="1.0" encoding="UTF-8"?>
<svg xmlns="http://www.w3.org/2000/svg" xmlns:xlink="http://www.w3.org/1999/xlink" width="22pt" height="22pt" viewBox="0 0 22 22" version="1.1">
<g id="surface1">
<path style="fill-rule:evenodd;fill:rgb(0%,59.215686%,70.196078%);fill-opacity:1;stroke-width:0.5;stroke-linecap:round;stroke-linejoin:round;stroke:rgb(0%,59.215686%,70.196078%);stroke-opacity:1;stroke-miterlimit:4;" d="M 4.44578 0.830987 C 4.44578 0.559531 4.670146 0.335165 4.941602 0.335165 L 9.054987 0.335165 C 9.329212 0.335165 9.556349 0.559531 9.556349 0.830987 L 9.556349 4.44578 L 13.165602 4.44578 C 13.439827 4.44578 13.666964 4.670146 13.666964 4.941602 L 13.666964 9.054987 C 13.666964 9.329212 13.439827 9.556349 13.165602 9.556349 L 9.556349 9.556349 L 9.556349 13.165602 C 9.556349 13.439827 9.329212 13.666964 9.054987 13.666964 L 4.941602 13.666964 C 4.670146 13.666964 4.44578 13.439827 4.44578 13.165602 L 4.44578 9.556349 L 0.830987 9.556349 C 0.559531 9.556349 0.335165 9.329212 0.335165 9.054987 L 0.335165 4.941602 C 0.335165 4.670146 0.559531 4.44578 0.830987 4.44578 L 4.44578 4.44578 Z M 5.445734 1.337889 L 5.445734 4.941602 C 5.445734 5.218597 5.218597 5.445734 4.941602 5.445734 L 1.337889 5.445734 L 1.337889 8.556395 L 4.941602 8.556395 C 5.218597 8.556395 5.445734 8.775221 5.445734 9.054987 L 5.445734 12.66978 L 8.556395 12.66978 L 8.556395 9.054987 C 8.556395 8.775221 8.775221 8.556395 9.054987 8.556395 L 12.66978 8.556395 L 12.66978 5.445734 L 9.054987 5.445734 C 8.775221 5.445734 8.556395 5.218597 8.556395 4.941602 L 8.556395 1.337889 Z M 5.445734 1.337889 " transform="matrix(1.410221,0,0,1.410221,0,0)"/>
</g>
</svg>
