<svg width="28" height="30" viewBox="0 0 28 30" fill="none" xmlns="http://www.w3.org/2000/svg">
<path fill-rule="evenodd" clip-rule="evenodd" d="M3.66667 0.666626C4.21895 0.666626 4.66667 1.11434 4.66667 1.66663V3.33329H26.3333C26.6936 3.33329 27.026 3.52709 27.2035 3.84059C27.381 4.1541 27.3762 4.53886 27.1908 4.84779L23.4995 11L27.1908 17.1521C27.3762 17.4611 27.381 17.8458 27.2035 18.1593C27.026 18.4728 26.6936 18.6666 26.3333 18.6666H4.66667V27.3333H6.33333C6.88562 27.3333 7.33333 27.781 7.33333 28.3333C7.33333 28.8856 6.88562 29.3333 6.33333 29.3333H1C0.447715 29.3333 0 28.8856 0 28.3333C0 27.781 0.447715 27.3333 1 27.3333H2.66667V1.66663C2.66667 1.11434 3.11438 0.666626 3.66667 0.666626ZM4.66667 16.6666V5.33329H24.5671L21.4758 10.4855C21.2858 10.8021 21.2858 11.1978 21.4758 11.5145L24.5671 16.6666H4.66667Z" fill="#0097B3"/>
</svg>
