<svg width="28" height="30" viewBox="0 0 28 30" fill="none" xmlns="http://www.w3.org/2000/svg">
<path fill-rule="evenodd" clip-rule="evenodd" d="M3 0.666748C1.34315 0.666748 3.17891e-07 2.00989 3.17891e-07 3.66675L0 15.6667C0 17.3236 1.34315 18.6667 3 18.6667H4V21.6667C4 22.0712 4.24364 22.4358 4.61732 22.5906C4.99099 22.7454 5.42111 22.6599 5.70711 22.3739L9.41421 18.6667H19.3333C20.9902 18.6667 22.3333 17.3236 22.3333 15.6667V3.66675C22.3333 2.00989 20.9902 0.666748 19.3333 0.666748H3ZM2 3.66675C2 3.11446 2.44772 2.66675 3 2.66675H19.3333C19.8856 2.66675 20.3333 3.11446 20.3333 3.66675V15.6667C20.3333 16.219 19.8856 16.6667 19.3333 16.6667H9C8.73478 16.6667 8.48043 16.7721 8.29289 16.9596L6 19.2525V17.6667C6 17.1145 5.55229 16.6667 5 16.6667H3C2.44772 16.6667 2 16.219 2 15.6667L2 3.66675Z" fill="#0097B3"/>
<path d="M25.3332 12.8377C24.8125 12.6537 24.2412 12.9266 24.0572 13.4473C23.8731 13.968 24.146 14.5393 24.6668 14.7234C25.0565 14.8611 25.3333 15.2329 25.3333 15.6667V22.3334C25.3333 22.8857 24.8856 23.3334 24.3333 23.3334H21C20.4477 23.3334 20 23.7811 20 24.3334V25.9192L17.7071 23.6263C17.5196 23.4388 17.2652 23.3334 17 23.3334H14.3333C13.781 23.3334 13.3333 22.8857 13.3333 22.3334V21.0834C13.3333 20.5311 12.8856 20.0834 12.3333 20.0834C11.781 20.0834 11.3333 20.5311 11.3333 21.0834V22.3334C11.3333 23.9903 12.6765 25.3334 14.3333 25.3334H16.5858L20.2929 29.0405C20.5789 29.3265 21.009 29.4121 21.3827 29.2573C21.7564 29.1025 22 28.7379 22 28.3334V25.3334H24.3333C25.9902 25.3334 27.3333 23.9903 27.3333 22.3334V15.6667C27.3333 14.359 26.4971 13.2491 25.3332 12.8377Z" fill="#0097B3"/>
</svg>
