<svg width="18" height="18" viewBox="0 0 18 18" fill="none" xmlns="http://www.w3.org/2000/svg">
<path fill-rule="evenodd" clip-rule="evenodd" d="M9 4C5.81818 4 3.10091 6.07333 2 9C3.10091 11.9267 5.81818 14 9 14C12.1818 14 14.8991 11.9267 16 9C14.8991 6.07333 12.1818 4 9 4ZM9 11.9999C7.344 11.9999 6 10.6559 6 8.99994C6 7.34394 7.344 5.99994 9 5.99994C10.656 5.99994 12 7.34394 12 8.99994C12 10.6559 10.656 11.9999 9 11.9999ZM7.2998 9C7.2998 8.05933 8.05914 7.3 8.9998 7.3C9.94047 7.3 10.6998 8.05933 10.6998 9C10.6998 9.94067 9.94047 10.7 8.9998 10.7C8.05914 10.7 7.2998 9.94067 7.2998 9Z" fill="white"/>
</svg>
