<svg width="30" height="26" viewBox="0 0 30 26" fill="none" xmlns="http://www.w3.org/2000/svg">
<path d="M16.4998 10.8333C16.4998 10.281 16.9476 9.83333 17.4998 9.83333L24.3332 9.83333C24.8855 9.83333 25.3332 10.281 25.3332 10.8333C25.3332 11.3856 24.8855 11.8333 24.3332 11.8333L17.4998 11.8333C16.9476 11.8333 16.4998 11.3856 16.4998 10.8333Z" fill="#0097B3"/>
<path d="M17.4998 14.1667C16.9476 14.1667 16.4998 14.6144 16.4998 15.1667C16.4998 15.719 16.9476 16.1667 17.4998 16.1667H21.8332C22.3855 16.1667 22.8332 15.719 22.8332 15.1667C22.8332 14.6144 22.3855 14.1667 21.8332 14.1667H17.4998Z" fill="#0097B3"/>
<path fill-rule="evenodd" clip-rule="evenodd" d="M6.40261 10.0695C6.40261 8.17481 7.93852 6.6389 9.83316 6.6389C11.7278 6.6389 13.2637 8.17481 13.2637 10.0695C13.2637 11.9641 11.7278 13.5 9.83316 13.5C7.93852 13.5 6.40261 11.9641 6.40261 10.0695ZM9.83316 8.6389C9.04309 8.6389 8.40261 9.27938 8.40261 10.0695C8.40261 10.8595 9.04309 11.5 9.83316 11.5C10.6232 11.5 11.2637 10.8595 11.2637 10.0695C11.2637 9.27938 10.6232 8.6389 9.83316 8.6389Z" fill="#0097B3"/>
<path d="M9.83317 14.2917C7.4913 14.2917 5.50168 15.7888 4.76428 17.8751C4.58023 18.3958 4.85316 18.9671 5.37387 19.1512C5.89459 19.3352 6.46591 19.0623 6.64996 18.5416C7.11375 17.2294 8.36524 16.2917 9.83317 16.2917C11.3011 16.2917 12.5526 17.2294 13.0164 18.5416C13.2004 19.0623 13.7718 19.3352 14.2925 19.1512C14.8132 18.9671 15.0861 18.3958 14.9021 17.8751C14.1647 15.7888 12.175 14.2917 9.83317 14.2917Z" fill="#0097B3"/>
<path fill-rule="evenodd" clip-rule="evenodd" d="M0.666504 5.5C0.666504 2.57642 2.79761 0 5.6665 0H24.3332C27.2021 0 29.3332 2.57642 29.3332 5.5V20.5C29.3332 23.4236 27.2021 26 24.3332 26H5.6665C2.79761 26 0.666504 23.4236 0.666504 20.5V5.5ZM5.6665 2C4.11712 2 2.6665 3.45302 2.6665 5.5V20.5C2.6665 22.547 4.11712 24 5.6665 24H24.3332C25.8826 24 27.3332 22.547 27.3332 20.5V5.5C27.3332 3.45302 25.8826 2 24.3332 2H5.6665Z" fill="#0097B3"/>
</svg>
