<svg width="120" height="40" viewBox="0 0 120 40" fill="none" xmlns="http://www.w3.org/2000/svg">
<g clip-path="url(#clip0)">
<path d="M110.135 7.92969e-06H9.53468C9.16798 7.92969e-06 8.80568 7.92975e-06 8.43995 0.00200793C8.1338 0.00400793 7.83009 0.00981793 7.521 0.0147079C6.84951 0.0226097 6.17961 0.0816842 5.5171 0.191418C4.85552 0.303541 4.21467 0.514924 3.61622 0.818418C3.0185 1.12448 2.47235 1.52218 1.99757 1.99708C1.5203 2.47064 1.12246 3.01802 0.81935 3.61817C0.5154 4.21712 0.304641 4.85895 0.19435 5.52149C0.0830109 6.18319 0.0230984 6.85253 0.01515 7.52349C0.00587 7.83009 0.00489 8.13771 0 8.44435V31.5586C0.00489 31.8691 0.00587 32.1699 0.01515 32.4805C0.0231008 33.1514 0.0830134 33.8207 0.19435 34.4824C0.304336 35.1453 0.515108 35.7875 0.81935 36.3867C1.12233 36.9849 1.52022 37.5301 1.99757 38.001C2.47054 38.478 3.01705 38.876 3.61622 39.1797C4.21467 39.484 4.85545 39.6967 5.5171 39.8105C6.17972 39.9194 6.84956 39.9785 7.521 39.9873C7.83009 39.9941 8.1338 39.998 8.43995 39.998C8.80567 40 9.168 40 9.53468 40H110.135C110.494 40 110.859 40 111.219 39.998C111.523 39.998 111.836 39.9941 112.141 39.9873C112.811 39.9789 113.479 39.9198 114.141 39.8105C114.804 39.6959 115.448 39.4833 116.049 39.1797C116.647 38.8758 117.193 38.4779 117.666 38.001C118.142 37.5282 118.541 36.9835 118.848 36.3867C119.15 35.7871 119.358 35.145 119.467 34.4824C119.578 33.8206 119.64 33.1515 119.652 32.4805C119.656 32.1699 119.656 31.8691 119.656 31.5586C119.664 31.1953 119.664 30.834 119.664 30.4648V9.53614C119.664 9.16993 119.664 8.80665 119.656 8.44435C119.656 8.13771 119.656 7.83009 119.652 7.52345C119.64 6.85243 119.578 6.18324 119.467 5.52145C119.358 4.85929 119.149 4.21751 118.848 3.61813C118.23 2.4152 117.252 1.43603 116.049 0.818328C115.448 0.515575 114.804 0.304248 114.141 0.191328C113.48 0.0811107 112.811 0.0220157 112.141 0.0145679C111.836 0.00968793 111.523 0.00382793 111.219 0.00187793C110.859 -0.00012207 110.494 -0.00012207 110.135 -0.00012207V7.92969e-06Z" fill="#13353F"/>
<path d="M24.7689 20.3007C24.7796 19.466 25.0013 18.6477 25.4134 17.9217C25.8254 17.1957 26.4143 16.5858 27.1254 16.1486C26.6737 15.5035 26.0777 14.9725 25.3849 14.598C24.6921 14.2234 23.9215 14.0156 23.1343 13.991C21.455 13.8147 19.8271 14.9958 18.9714 14.9958C18.0991 14.9958 16.7816 14.0085 15.3629 14.0376C14.4452 14.0673 13.5509 14.3341 12.767 14.8122C11.9831 15.2903 11.3364 15.9632 10.89 16.7655C8.95595 20.1139 10.3985 25.035 12.2511 27.7416C13.178 29.0669 14.2613 30.5474 15.6788 30.4949C17.0658 30.4374 17.5839 29.6104 19.2582 29.6104C20.9169 29.6104 21.403 30.4949 22.8492 30.4615C24.3376 30.4374 25.2753 29.1303 26.1697 27.7924C26.8357 26.848 27.3481 25.8043 27.6881 24.6999C26.8234 24.3341 26.0855 23.722 25.5664 22.9397C25.0472 22.1574 24.7699 21.2396 24.7689 20.3007Z" fill="white"/>
<path d="M22.0372 12.2109C22.8487 11.2367 23.2485 9.98451 23.1517 8.72028C21.9119 8.8505 20.7666 9.44306 19.9441 10.3799C19.542 10.8376 19.234 11.37 19.0378 11.9468C18.8415 12.5235 18.7609 13.1333 18.8004 13.7413C19.4206 13.7477 20.0341 13.6132 20.5947 13.3482C21.1554 13.0831 21.6486 12.6942 22.0372 12.2109Z" fill="white"/>
<path d="M42.3022 27.1396H37.5688L36.4321 30.4961H34.4272L38.9106 18.0781H40.9936L45.477 30.4961H43.438L42.3022 27.1396ZM38.0591 25.5908H41.8111L39.9615 20.1435H39.9097L38.0591 25.5908Z" fill="white"/>
<path d="M55.1597 25.9697C55.1597 28.7832 53.6538 30.5908 51.3814 30.5908C50.8057 30.6209 50.2332 30.4883 49.7294 30.2082C49.2256 29.928 48.8109 29.5117 48.5327 29.0068H48.4897V33.4912H46.6313V21.4424H48.4302V22.9482H48.4644C48.7553 22.4458 49.1771 22.0316 49.6847 21.7497C50.1923 21.4679 50.7669 21.3289 51.3472 21.3476C53.645 21.3477 55.1597 23.1641 55.1597 25.9697ZM53.2495 25.9697C53.2495 24.1367 52.3023 22.9316 50.857 22.9316C49.437 22.9316 48.482 24.1621 48.482 25.9697C48.482 27.7939 49.437 29.0156 50.857 29.0156C52.3023 29.0156 53.2495 27.8193 53.2495 25.9697Z" fill="white"/>
<path d="M65.1245 25.9697C65.1245 28.7832 63.6187 30.5908 61.3462 30.5908C60.7706 30.6209 60.1981 30.4883 59.6943 30.2082C59.1905 29.928 58.7758 29.5117 58.4976 29.0068H58.4546V33.4912H56.5962V21.4424H58.395V22.9482H58.4292C58.7201 22.4458 59.1419 22.0316 59.6495 21.7497C60.1571 21.4679 60.7317 21.3289 61.312 21.3476C63.6099 21.3476 65.1245 23.164 65.1245 25.9697ZM63.2144 25.9697C63.2144 24.1367 62.2671 22.9316 60.8218 22.9316C59.4019 22.9316 58.4468 24.1621 58.4468 25.9697C58.4468 27.7939 59.4019 29.0156 60.8218 29.0156C62.2671 29.0156 63.2144 27.8193 63.2144 25.9697H63.2144Z" fill="white"/>
<path d="M71.7105 27.0361C71.8482 28.2676 73.0445 29.0761 74.6792 29.0761C76.2456 29.0761 77.3726 28.2675 77.3726 27.1572C77.3726 26.1933 76.6929 25.6162 75.0835 25.2207L73.4742 24.833C71.1939 24.2822 70.1353 23.2158 70.1353 21.4853C70.1353 19.3427 72.0025 17.871 74.6538 17.871C77.2778 17.871 79.0767 19.3427 79.1372 21.4853H77.2612C77.1489 20.246 76.1245 19.498 74.6274 19.498C73.1304 19.498 72.106 20.2548 72.106 21.3564C72.106 22.2343 72.7603 22.7509 74.3608 23.1464L75.729 23.4823C78.2769 24.0849 79.3355 25.1083 79.3355 26.9247C79.3355 29.248 77.4849 30.703 74.5415 30.703C71.7876 30.703 69.9282 29.2821 69.8081 27.036L71.7105 27.0361Z" fill="white"/>
<path d="M83.3462 19.2998V21.4424H85.0679V22.9141H83.3462V27.9053C83.3462 28.6807 83.6909 29.042 84.4477 29.042C84.6521 29.0384 84.8562 29.0241 85.0591 28.999V30.4619C84.7188 30.5255 84.3729 30.5543 84.0268 30.5478C82.1938 30.5478 81.479 29.8593 81.479 28.1035V22.9141H80.1626V21.4424H81.479V19.2998H83.3462Z" fill="white"/>
<path d="M86.0649 25.9697C86.0649 23.1211 87.7427 21.3311 90.3589 21.3311C92.9839 21.3311 94.6538 23.1211 94.6538 25.9697C94.6538 28.8262 92.9927 30.6084 90.3589 30.6084C87.726 30.6084 86.0649 28.8262 86.0649 25.9697ZM92.7602 25.9697C92.7602 24.0156 91.8647 22.8623 90.3589 22.8623C88.853 22.8623 87.9585 24.0244 87.9585 25.9697C87.9585 27.9316 88.853 29.0762 90.3589 29.0762C91.8647 29.0762 92.7602 27.9316 92.7602 25.9697H92.7602Z" fill="white"/>
<path d="M96.186 21.4424H97.9585V22.9834H98.0015C98.1214 22.5021 98.4034 22.0768 98.8 21.7789C99.1966 21.481 99.6836 21.3287 100.179 21.3476C100.393 21.3469 100.607 21.3702 100.816 21.417V23.1553C100.546 23.0726 100.264 23.0347 99.981 23.043C99.711 23.032 99.4418 23.0796 99.192 23.1825C98.9421 23.2854 98.7175 23.4411 98.5335 23.639C98.3496 23.8369 98.2106 24.0723 98.1262 24.3289C98.0417 24.5856 98.0139 24.8575 98.0444 25.126V30.4961H96.186L96.186 21.4424Z" fill="white"/>
<path d="M109.384 27.8369C109.134 29.4805 107.534 30.6084 105.486 30.6084C102.852 30.6084 101.217 28.8437 101.217 26.0127C101.217 23.1729 102.861 21.3311 105.408 21.3311C107.913 21.3311 109.488 23.0518 109.488 25.7969V26.4336H103.093V26.5459C103.064 26.8791 103.105 27.2148 103.216 27.5306C103.326 27.8464 103.502 28.1352 103.732 28.3778C103.963 28.6203 104.242 28.8111 104.552 28.9374C104.861 29.0637 105.195 29.1226 105.529 29.1103C105.968 29.1515 106.409 29.0498 106.785 28.8203C107.162 28.5909 107.455 28.246 107.62 27.8369L109.384 27.8369ZM103.102 25.1348H107.628C107.645 24.8352 107.6 24.5354 107.495 24.2541C107.39 23.9729 107.229 23.7164 107.02 23.5006C106.812 23.2849 106.561 23.1145 106.283 23.0003C106.006 22.8861 105.708 22.8305 105.408 22.8369C105.105 22.8351 104.805 22.8933 104.525 23.008C104.245 23.1227 103.99 23.2918 103.776 23.5054C103.562 23.7191 103.392 23.973 103.276 24.2527C103.16 24.5323 103.101 24.8321 103.102 25.1348V25.1348Z" fill="white"/>
<path d="M36.7383 11.2534H37.5361C37.6735 11.2705 37.8129 11.259 37.9455 11.2195C38.0782 11.1801 38.2013 11.1136 38.307 11.0242C38.4127 10.9349 38.4987 10.8246 38.5596 10.7003C38.6206 10.5761 38.6552 10.4405 38.6611 10.3023C38.6611 9.75196 38.2471 9.39649 37.5449 9.39649C37.4042 9.37683 37.261 9.38556 37.1237 9.42217C36.9864 9.45878 36.8579 9.52252 36.7456 9.60964C36.6334 9.69675 36.5397 9.80547 36.4702 9.92938C36.4007 10.0533 36.3567 10.1899 36.3408 10.3311H35.4648C35.4799 10.0748 35.5476 9.82431 35.6636 9.5953C35.7797 9.36629 35.9417 9.16362 36.1394 8.99992C36.3372 8.83621 36.5666 8.71498 36.8133 8.64375C37.0599 8.57253 37.3186 8.55285 37.5732 8.58594C38.748 8.58594 39.5752 9.24365 39.5752 10.1904C39.578 10.5076 39.4719 10.8161 39.2746 11.0645C39.0773 11.3129 38.8008 11.4861 38.4912 11.5552V11.6255C38.8582 11.6418 39.2038 11.8027 39.4525 12.0731C39.7012 12.3434 39.8328 12.7013 39.8184 13.0684C39.7912 13.3323 39.7116 13.5881 39.5843 13.8208C39.457 14.0536 39.2845 14.2585 39.077 14.4238C38.8694 14.589 38.631 14.7111 38.3756 14.783C38.1202 14.8548 37.8531 14.875 37.5898 14.8423C37.326 14.8783 37.0577 14.8607 36.8008 14.7908C36.5439 14.7208 36.3037 14.5999 36.0946 14.4351C35.8854 14.2703 35.7116 14.0651 35.5834 13.8317C35.4553 13.5984 35.3754 13.3416 35.3486 13.0767H36.2383C36.292 13.6475 36.8164 14.0157 37.5898 14.0157C38.3633 14.0157 38.8682 13.6021 38.8682 13.0191C38.8682 12.4278 38.3926 12.0635 37.5615 12.0635H36.7383V11.2534Z" fill="white"/>
<path d="M40.8291 13.4243C40.8291 12.6138 41.4336 12.1465 42.5039 12.0801L43.7236 12.0098V11.6211C43.7236 11.1455 43.4102 10.877 42.8018 10.877C42.3057 10.877 41.9629 11.0591 41.8633 11.3774H41.0029C41.0937 10.604 41.8223 10.1079 42.8438 10.1079C43.9727 10.1079 44.6094 10.6699 44.6094 11.6211V14.6978H43.7529V14.0649H43.6826C43.5399 14.2919 43.3395 14.477 43.1019 14.6012C42.8643 14.7254 42.5979 14.7843 42.3301 14.7719C42.141 14.7916 41.95 14.7714 41.7692 14.7127C41.5885 14.654 41.422 14.5581 41.2806 14.4311C41.1392 14.3042 41.0259 14.149 40.9482 13.9756C40.8704 13.8021 40.8298 13.6144 40.8291 13.4243ZM43.7236 13.0395V12.6631L42.624 12.7334C42.0039 12.7749 41.7226 12.9858 41.7226 13.3828C41.7226 13.7881 42.0742 14.0239 42.5576 14.0239C42.6993 14.0383 42.8423 14.024 42.9784 13.9819C43.1144 13.9398 43.2405 13.8708 43.3493 13.7789C43.4581 13.6871 43.5473 13.5743 43.6116 13.4473C43.6759 13.3202 43.714 13.1816 43.7236 13.0395Z" fill="white"/>
<path d="M46.9678 10.9429V14.6978H46.0791V10.1948H49.044V10.9428L46.9678 10.9429Z" fill="white"/>
<path d="M54.4297 12.4444C54.4297 13.875 53.7061 14.772 52.5693 14.772C52.2903 14.7911 52.0116 14.73 51.7661 14.596C51.5206 14.462 51.3185 14.2606 51.1836 14.0156H51.1133V16.1948H50.2246V10.1948H51.0801V10.939H51.1465C51.2838 10.6855 51.4886 10.4748 51.7381 10.3303C51.9877 10.1858 52.2723 10.1131 52.5606 10.1202C53.7061 10.1201 54.4297 11.0132 54.4297 12.4444ZM53.5156 12.4444C53.5156 11.4932 53.0654 10.9185 52.3125 10.9185C51.5645 10.9185 51.0967 11.5054 51.0967 12.4483C51.0967 13.3867 51.5645 13.9741 52.3086 13.9741C53.0654 13.9741 53.5156 13.3994 53.5156 12.4444Z" fill="white"/>
<path d="M55.6133 16.3106V15.5454C55.7095 15.5576 55.8064 15.5632 55.9033 15.562C56.0927 15.576 56.2805 15.5197 56.4308 15.4037C56.5811 15.2877 56.6833 15.1203 56.7178 14.9336L56.7842 14.7144L55.1543 10.1948H56.1221L57.251 13.7715H57.3213L58.4463 10.1948H59.3887L57.71 14.8838C57.3252 15.9795 56.8995 16.3311 55.9815 16.3311C55.9073 16.3311 55.6963 16.3228 55.6133 16.3106Z" fill="white"/>
<path d="M60.0811 13.4199H60.9658C61.0527 13.8169 61.4248 14.0239 61.9453 14.0239C62.5371 14.0239 62.9004 13.7632 62.9004 13.3579C62.9004 12.9239 62.5742 12.7168 61.9453 12.7168H61.2715V12.0264H61.9336C62.4707 12.0264 62.7441 11.8199 62.7441 11.4434C62.7441 11.1128 62.4795 10.8604 61.9336 10.8604C61.4365 10.8604 61.0732 11.0713 61.0156 11.4268H60.1592C60.2232 11.0183 60.445 10.6513 60.7768 10.4047C61.1086 10.1581 61.524 10.0515 61.9336 10.108C63.0039 10.108 63.6162 10.5918 63.6162 11.3526C63.6212 11.5644 63.5533 11.7716 63.4239 11.9394C63.2945 12.1072 63.1114 12.2255 62.9053 12.2745V12.3448C63.1507 12.3764 63.376 12.4971 63.5384 12.6839C63.7007 12.8706 63.7889 13.1105 63.7861 13.358C63.7861 14.214 63.0576 14.7803 61.9453 14.7803C60.9619 14.7803 60.1631 14.3296 60.0811 13.4199Z" fill="white"/>
<path d="M65.0659 14.6978V10.1948H65.9468V13.292H66.0171L68.0923 10.1948H68.9731V14.6978H68.0923V11.584H68.0259L65.9468 14.6978L65.0659 14.6978Z" fill="white"/>
<path d="M73.8256 10.9429H72.4076V14.6978H71.518V10.9429H70.1V10.1949H73.8256V10.9429Z" fill="white"/>
<path d="M78.6128 13.4819C78.4917 13.8934 78.2299 14.2493 77.8731 14.4875C77.5163 14.7256 77.0872 14.8308 76.6607 14.7847C76.364 14.7925 76.0692 14.7357 75.7967 14.6181C75.5242 14.5006 75.2805 14.3252 75.0826 14.104C74.8847 13.8829 74.7373 13.6213 74.6506 13.3375C74.5639 13.0537 74.54 12.7544 74.5806 12.4604C74.5411 12.1655 74.5654 11.8656 74.6519 11.5809C74.7384 11.2963 74.885 11.0335 75.0819 10.8104C75.2788 10.5874 75.5213 10.4092 75.793 10.288C76.0647 10.1668 76.3593 10.1054 76.6568 10.1079C77.9097 10.1079 78.6665 10.9639 78.6665 12.3779V12.688H75.4869V12.7378C75.4728 12.9031 75.4934 13.0695 75.5475 13.2263C75.6016 13.3831 75.6878 13.5269 75.8008 13.6484C75.9137 13.7699 76.0508 13.8664 76.2033 13.9317C76.3558 13.9971 76.5202 14.0298 76.6861 14.0278C76.8985 14.0532 77.1137 14.0149 77.3043 13.9177C77.4949 13.8204 77.6522 13.6688 77.7564 13.4819L78.6128 13.4819ZM75.4868 12.0308H77.7603C77.7715 11.8797 77.751 11.728 77.7001 11.5853C77.6492 11.4426 77.5691 11.3122 77.4648 11.2023C77.3605 11.0925 77.2344 11.0057 77.0946 10.9474C76.9547 10.8892 76.8043 10.8609 76.6529 10.8643C76.4991 10.8622 76.3465 10.8909 76.2041 10.9488C76.0616 11.0067 75.9322 11.0925 75.8235 11.2013C75.7148 11.31 75.629 11.4395 75.5712 11.5819C75.5134 11.7244 75.4847 11.877 75.4869 12.0308H75.4868Z" fill="white"/>
<path d="M82.3804 10.1948H84.4106C85.2915 10.1948 85.8081 10.6411 85.8081 11.3398C85.8095 11.5615 85.7347 11.777 85.5962 11.9501C85.4577 12.1233 85.264 12.2436 85.0474 12.291V12.3613C85.3103 12.3779 85.5569 12.4949 85.7361 12.6881C85.9153 12.8813 86.0134 13.1359 86.0103 13.3994C86.0103 14.185 85.4194 14.6977 84.4312 14.6977H82.3804V10.1948ZM83.2612 10.877V12.043H84.1421C84.6792 12.043 84.936 11.8364 84.936 11.4556C84.936 11.1045 84.7124 10.8769 84.2407 10.8769L83.2612 10.877ZM83.2612 12.6963V14.0156H84.315C84.8404 14.0156 85.1216 13.7837 85.1216 13.3579C85.1216 12.9072 84.8033 12.6963 84.2036 12.6963L83.2612 12.6963Z" fill="white"/>
</g>
<defs>
<clipPath id="clip0">
<rect width="119.664" height="40" fill="white"/>
</clipPath>
</defs>
</svg>
