<svg width="135" height="40" viewBox="0 0 135 40" fill="none" xmlns="http://www.w3.org/2000/svg">
<path d="M130 0H5C2.23858 0 0 2.23858 0 5V35C0 37.7614 2.23858 40 5 40H130C132.761 40 135 37.7614 135 35V5C135 2.23858 132.761 0 130 0Z" fill="#13353F"/>
<path d="M68.14 21.75C67.2974 21.752 66.4744 22.0037 65.7749 22.4735C65.0755 22.9432 64.531 23.6098 64.2104 24.389C63.8898 25.1682 63.8075 26.0249 63.9738 26.8509C64.1401 27.6768 64.5476 28.4349 65.1448 29.0293C65.742 29.6237 66.502 30.0276 67.3287 30.1901C68.1555 30.3525 69.0118 30.2661 69.7895 29.9419C70.5671 29.6176 71.2311 29.07 71.6976 28.3684C72.164 27.6667 72.412 26.8425 72.41 26C72.4181 25.4379 72.3131 24.88 72.1012 24.3593C71.8892 23.8387 71.5746 23.366 71.1762 22.9695C70.7778 22.5729 70.3037 22.2606 69.7821 22.0511C69.2604 21.8416 68.702 21.7392 68.14 21.75ZM68.14 28.58C67.6236 28.6161 67.1082 28.496 66.6609 28.2354C66.2137 27.9747 65.8552 27.5855 65.632 27.1184C65.4088 26.6513 65.3314 26.1279 65.4097 25.6161C65.4879 25.1044 65.7184 24.6281 66.0709 24.249C66.4235 23.87 66.882 23.6058 67.3867 23.4908C67.8915 23.3757 68.4192 23.4152 68.9012 23.6041C69.3832 23.7929 69.7972 24.1224 70.0895 24.5497C70.3818 24.977 70.5387 25.4823 70.54 26C70.5561 26.328 70.5063 26.6559 70.3937 26.9644C70.2811 27.2729 70.1078 27.5557 69.8841 27.7962C69.6604 28.0366 69.3909 28.2299 69.0913 28.3645C68.7918 28.4991 68.4683 28.5724 68.14 28.58ZM58.82 21.75C57.9774 21.752 57.1544 22.0037 56.4549 22.4735C55.7555 22.9432 55.211 23.6098 54.8904 24.389C54.5698 25.1682 54.4875 26.0249 54.6538 26.8509C54.8201 27.6768 55.2276 28.4349 55.8248 29.0293C56.422 29.6237 57.182 30.0276 58.0087 30.1901C58.8355 30.3525 59.6918 30.2661 60.4694 29.9419C61.2471 29.6176 61.9111 29.07 62.3776 28.3684C62.844 27.6667 63.092 26.8425 63.09 26C63.0981 25.4379 62.9931 24.88 62.7811 24.3593C62.5692 23.8387 62.2546 23.366 61.8562 22.9695C61.4578 22.5729 60.9837 22.2606 60.4621 22.0511C59.9404 21.8416 59.382 21.7392 58.82 21.75ZM58.82 28.58C58.3036 28.6161 57.7882 28.496 57.3409 28.2354C56.8937 27.9747 56.5352 27.5855 56.312 27.1184C56.0888 26.6513 56.0114 26.1279 56.0897 25.6161C56.1679 25.1044 56.3983 24.6281 56.7509 24.249C57.1035 23.87 57.562 23.6058 58.0667 23.4908C58.5715 23.3757 59.0992 23.4152 59.5812 23.6041C60.0632 23.7929 60.4772 24.1224 60.7695 24.5497C61.0618 24.977 61.2187 25.4823 61.22 26C61.2361 26.328 61.1864 26.6559 61.0737 26.9644C60.9611 27.2729 60.7878 27.5557 60.5641 27.7962C60.3404 28.0366 60.0709 28.2299 59.7713 28.3645C59.4718 28.4991 59.1483 28.5724 58.82 28.58ZM47.74 23.06V24.86H52.06C51.9922 25.7078 51.6398 26.5078 51.06 27.13C50.6266 27.5715 50.1054 27.9171 49.5301 28.1445C48.9547 28.3719 48.3381 28.476 47.72 28.45C46.4469 28.45 45.226 27.9443 44.3259 27.0441C43.4257 26.1439 42.92 24.923 42.92 23.65C42.92 22.3769 43.4257 21.156 44.3259 20.2559C45.226 19.3557 46.4469 18.85 47.72 18.85C48.9404 18.8318 50.1189 19.2953 51 20.14L52.27 18.87C51.674 18.2805 50.9663 17.8159 50.1884 17.5034C49.4106 17.1908 48.5782 17.0367 47.74 17.05C46.851 17.0154 45.9641 17.1606 45.1326 17.477C44.3011 17.7933 43.5419 18.2743 42.9007 18.891C42.2595 19.5077 41.7494 20.2476 41.401 21.0662C41.0525 21.8848 40.8729 22.7653 40.8729 23.655C40.8729 24.5447 41.0525 25.4252 41.401 26.2438C41.7494 27.0624 42.2595 27.8022 42.9007 28.419C43.5419 29.0357 44.3011 29.5167 45.1326 29.833C45.9641 30.1494 46.851 30.2946 47.74 30.26C48.5954 30.2941 49.4484 30.147 50.2429 29.8281C51.0374 29.5093 51.7555 29.026 52.35 28.41C53.4001 27.2564 53.9596 25.7392 53.91 24.18C53.9136 23.8047 53.8834 23.4299 53.82 23.06H47.74ZM93.05 24.46C92.7892 23.6927 92.3015 23.0228 91.6515 22.5388C91.0015 22.0549 90.2198 21.7798 89.41 21.75C88.863 21.7489 88.3216 21.86 87.8192 22.0765C87.3169 22.293 86.8643 22.6102 86.4894 23.0085C86.1145 23.4068 85.8252 23.8778 85.6396 24.3924C85.4539 24.9069 85.3758 25.454 85.41 26C85.4014 26.9128 85.6884 27.804 86.2281 28.5402C86.7678 29.2765 87.5312 29.8185 88.4042 30.0851C89.2773 30.3518 90.2132 30.3288 91.0722 30.0197C91.9311 29.7106 92.667 29.1318 93.17 28.37L91.72 27.37C91.5038 27.7303 91.1972 28.0278 90.8306 28.233C90.464 28.4382 90.0501 28.5441 89.63 28.54C89.1965 28.5579 88.7678 28.4442 88.4002 28.214C88.0325 27.9838 87.7431 27.6477 87.57 27.25L93.26 24.9L93.05 24.46ZM87.25 25.88C87.2297 25.5699 87.2717 25.2588 87.3734 24.9652C87.4752 24.6715 87.6347 24.4012 87.8424 24.1701C88.0502 23.939 88.3022 23.7519 88.5834 23.6196C88.8646 23.4873 89.1695 23.4127 89.48 23.4C89.8011 23.3794 90.1212 23.4538 90.4004 23.6138C90.6795 23.7739 90.9054 24.0125 91.05 24.3L87.25 25.88ZM82.63 30H84.5V17.5H82.63V30ZM79.57 22.7H79.5C79.216 22.3909 78.8692 22.1462 78.4829 21.9824C78.0965 21.8185 77.6795 21.7393 77.26 21.75C76.1672 21.803 75.1366 22.2744 74.382 23.0666C73.6273 23.8587 73.2063 24.9109 73.2063 26.005C73.2063 27.0991 73.6273 28.1512 74.382 28.9434C75.1366 29.7356 76.1672 30.207 77.26 30.26C77.6839 30.2685 78.1046 30.1833 78.4918 30.0104C78.879 29.8375 79.2233 29.5813 79.5 29.26H79.57V29.87C79.57 31.5 78.7 32.37 77.3 32.37C76.8323 32.3597 76.3782 32.2107 75.9954 31.9418C75.6126 31.673 75.3183 31.2964 75.15 30.86L73.53 31.53C73.8295 32.2822 74.3502 32.9259 75.0234 33.3758C75.6965 33.8258 76.4904 34.0609 77.3 34.05C79.49 34.05 81.3 32.76 81.3 29.62V22H79.57V22.7ZM77.42 28.58C76.7648 28.5391 76.1498 28.2501 75.7003 27.7716C75.2508 27.2932 75.0005 26.6614 75.0005 26.005C75.0005 25.3485 75.2508 24.7167 75.7003 24.2383C76.1498 23.7599 76.7648 23.4708 77.42 23.43C77.7402 23.4438 78.0544 23.5219 78.3438 23.6596C78.6333 23.7973 78.8921 23.9919 79.1048 24.2317C79.3175 24.4714 79.4798 24.7516 79.5821 25.0553C79.6843 25.3591 79.7244 25.6804 79.7 26C79.7273 26.3207 79.6892 26.6436 79.5881 26.9491C79.4871 27.2547 79.3251 27.5366 79.1119 27.7778C78.8988 28.0189 78.639 28.2144 78.3482 28.3523C78.0574 28.4902 77.7416 28.5676 77.42 28.58ZM101.81 17.5H97.33V30H99.2V25.26H101.81C102.343 25.2983 102.878 25.2264 103.382 25.0487C103.886 24.8711 104.348 24.5915 104.739 24.2275C105.13 23.8634 105.442 23.4227 105.655 22.9328C105.869 22.4429 105.979 21.9143 105.979 21.38C105.979 20.8457 105.869 20.3171 105.655 19.8272C105.442 19.3372 105.13 18.8965 104.739 18.5325C104.348 18.1685 103.886 17.8889 103.382 17.7113C102.878 17.5336 102.343 17.4617 101.81 17.5ZM101.81 23.5H99.2V19.24H101.85C102.418 19.24 102.962 19.4654 103.363 19.8668C103.765 20.2681 103.99 20.8124 103.99 21.38C103.99 21.9475 103.765 22.4919 103.363 22.8932C102.962 23.2945 102.418 23.52 101.85 23.52L101.81 23.5ZM113.35 21.71C112.669 21.668 111.991 21.8265 111.399 22.166C110.807 22.5055 110.328 23.011 110.02 23.62L111.67 24.31C111.837 24.0094 112.087 23.7635 112.39 23.602C112.694 23.4405 113.038 23.3704 113.38 23.4C113.617 23.3723 113.858 23.3921 114.088 23.4583C114.317 23.5245 114.531 23.6358 114.718 23.7857C114.904 23.9356 115.058 24.121 115.172 24.3312C115.286 24.5414 115.356 24.7722 115.38 25.01V25.13C114.779 24.8139 114.109 24.6491 113.43 24.65C111.65 24.65 109.83 25.65 109.83 27.47C109.848 27.8568 109.943 28.2362 110.11 28.5855C110.277 28.9349 110.513 29.2471 110.803 29.5036C111.093 29.7601 111.431 29.9557 111.799 30.0788C112.166 30.2018 112.554 30.2499 112.94 30.22C113.409 30.2459 113.877 30.1466 114.295 29.9323C114.713 29.7179 115.067 29.3961 115.32 29H115.38V30H117.18V25.19C117.18 23 115.52 21.73 113.39 21.73L113.35 21.71ZM113.12 28.56C112.51 28.56 111.66 28.25 111.66 27.5C111.66 26.5 112.72 26.16 113.66 26.16C114.254 26.1453 114.841 26.2904 115.36 26.58C115.297 27.1231 115.04 27.625 114.635 27.9927C114.231 28.3604 113.707 28.5691 113.16 28.58L113.12 28.56ZM123.74 22L121.6 27.42H121.54L119.32 22H117.32L120.65 29.58L118.75 33.79H120.75L125.82 22H123.74ZM106.94 30H108.8V17.5H106.94V30Z" fill="white"/>
<path d="M10.4401 7.54C10.1213 7.93406 9.96403 8.43444 10.0001 8.94V31.06C9.96603 31.5704 10.135 32.0735 10.4701 32.46L10.5401 32.54L22.9001 20.15V19.85L10.5101 7.47L10.4401 7.54Z" fill="url(#paint0_linear)"/>
<path d="M27 24.28L22.9 20.15V19.85L27 15.72L27.09 15.78L32 18.56C33.4 19.35 33.4 20.65 32 21.45L27.11 24.23L27 24.28Z" fill="url(#paint1_linear)"/>
<path d="M27.1199 24.23L22.8999 20L10.4399 32.46C10.7225 32.7115 11.0842 32.8562 11.4623 32.869C11.8404 32.8818 12.211 32.7619 12.5099 32.53L27.1199 24.23Z" fill="url(#paint2_linear)"/>
<path d="M27.1199 15.78L12.5099 7.48C12.213 7.24491 11.8426 7.12206 11.464 7.13303C11.0854 7.14401 10.7228 7.28811 10.4399 7.54L22.8999 20L27.1199 15.78Z" fill="url(#paint3_linear)"/>
<path opacity="0.2" d="M26.9999 24.13L12.5099 32.38C12.2219 32.5974 11.8708 32.715 11.5099 32.715C11.1491 32.715 10.798 32.5974 10.5099 32.38L10.4399 32.45L10.5099 32.53C10.798 32.7474 11.1491 32.865 11.5099 32.865C11.8708 32.865 12.2219 32.7474 12.5099 32.53L27.1199 24.23L26.9999 24.13Z" fill="black"/>
<path opacity="0.12" d="M10.44 32.32C10.1188 31.9234 9.96138 31.4189 10 30.91V31.06C9.96597 31.5704 10.1349 32.0735 10.47 32.46L10.54 32.39L10.44 32.32Z" fill="black"/>
<path opacity="0.12" d="M32 21.3L27 24.13L27.09 24.23L32 21.44C32.2898 21.3174 32.5413 21.119 32.7278 20.8656C32.9143 20.6122 33.0291 20.3132 33.06 20C32.9975 20.2846 32.869 20.5505 32.6849 20.7763C32.5007 21.0021 32.2662 21.1815 32 21.3Z" fill="black"/>
<path opacity="0.25" d="M12.51 7.62001L32 18.7C32.2662 18.8185 32.5007 18.9979 32.6849 19.2237C32.869 19.4495 32.9975 19.7154 33.06 20C33.0291 19.6869 32.9143 19.3878 32.7278 19.1344C32.5413 18.881 32.2898 18.6826 32 18.56L12.51 7.48001C11.12 6.68001 10 7.34001 10 8.94001V9.09001C10 7.49001 11.12 6.83001 12.51 7.62001Z" fill="white"/>
<path d="M42.11 14.27H41.38V12.27H42C42.279 11.9672 42.4887 11.6073 42.6148 11.2153C42.7408 10.8234 42.7801 10.4087 42.73 10V7H46.73V12.26H47.4V14.26H46.66V13H42.11V14.27ZM43.5 10C43.5446 10.8033 43.346 11.6014 42.93 12.29H45.93V7.74H43.5V10Z" fill="white" stroke="white" stroke-width="0.2" stroke-miterlimit="10"/>
<path d="M53.41 12.22C53.1212 12.5091 52.7783 12.7384 52.4008 12.8948C52.0233 13.0513 51.6187 13.1318 51.21 13.1318C50.8014 13.1318 50.3968 13.0513 50.0193 12.8948C49.6418 12.7384 49.2989 12.5091 49.01 12.22C48.7229 11.9272 48.4972 11.58 48.3461 11.1987C48.195 10.8175 48.1215 10.41 48.13 9.99999C48.1202 9.5907 48.1921 9.18357 48.3415 8.80239C48.4909 8.42121 48.7148 8.07364 49 7.77999C49.2889 7.49093 49.6318 7.26162 50.0093 7.10517C50.3868 6.94872 50.7914 6.86819 51.2 6.86819C51.6087 6.86819 52.0133 6.94872 52.3908 7.10517C52.7683 7.26162 53.1112 7.49093 53.4 7.77999C53.6907 8.07116 53.9201 8.41762 54.0747 8.79891C54.2293 9.1802 54.3059 9.5886 54.3 9.99999C54.3119 10.4113 54.2389 10.8206 54.0858 11.2025C53.9327 11.5844 53.7027 11.9308 53.41 12.22ZM49.58 11.72C49.7907 11.9388 50.0441 12.1121 50.3245 12.2291C50.6049 12.346 50.9063 12.4042 51.21 12.4C51.514 12.406 51.816 12.3487 52.0966 12.2316C52.3773 12.1145 52.6304 11.9403 52.84 11.72C53.0635 11.4944 53.2382 11.2254 53.3535 10.9295C53.4687 10.6336 53.522 10.3173 53.51 9.99999C53.522 9.68271 53.4687 9.36634 53.3535 9.07049C53.2382 8.77463 53.0635 8.50558 52.84 8.27999C52.6304 8.0597 52.3773 7.88546 52.0966 7.76839C51.816 7.65131 51.514 7.59396 51.21 7.59999C50.9063 7.59578 50.6049 7.65395 50.3245 7.77092C50.0441 7.88788 49.7907 8.06115 49.58 8.27999C49.3598 8.50745 49.1879 8.77705 49.0745 9.07262C48.961 9.36819 48.9085 9.68362 48.92 9.99999C48.9085 10.3164 48.961 10.6318 49.0745 10.9274C49.1879 11.2229 49.3598 11.4925 49.58 11.72Z" fill="white" stroke="white" stroke-width="0.2" stroke-miterlimit="10"/>
<path d="M58.1801 13.13C57.7754 13.1363 57.3737 13.0608 56.9991 12.9078C56.6244 12.7549 56.2846 12.5277 56.0001 12.24C55.7031 11.9493 55.4697 11.6001 55.3148 11.2145C55.1599 10.8289 55.0867 10.4153 55.1 10C55.0905 9.5872 55.1646 9.17675 55.3179 8.79335C55.4712 8.40995 55.7005 8.06155 55.992 7.76911C56.2835 7.47667 56.6312 7.24626 57.0141 7.09174C57.397 6.93722 57.8072 6.86179 58.2201 6.87C58.6387 6.85815 59.0545 6.94208 59.4358 7.11539C59.8171 7.28869 60.1537 7.54679 60.42 7.87L59.89 8.39C59.6936 8.13741 59.4394 7.93566 59.1488 7.80167C58.8582 7.66769 58.5397 7.60539 58.2201 7.62C57.9122 7.61214 57.6061 7.66756 57.3206 7.7828C57.035 7.89805 56.7762 8.07068 56.5601 8.29C56.3302 8.51064 56.1484 8.77647 56.0262 9.07075C55.904 9.36503 55.8441 9.68141 55.85 10C55.8361 10.319 55.8884 10.6374 56.0037 10.9352C56.1191 11.233 56.2949 11.5036 56.5201 11.73C56.7362 11.9493 56.995 12.1219 57.2805 12.2372C57.5661 12.3524 57.8722 12.4078 58.1801 12.4C58.5289 12.3985 58.873 12.3197 59.1877 12.1693C59.5024 12.0188 59.7798 11.8005 60.0001 11.53L60.5401 12.06C60.2661 12.3883 59.9252 12.6542 59.5401 12.84C59.1146 13.0387 58.6495 13.1379 58.1801 13.13Z" fill="white" stroke="white" stroke-width="0.2" stroke-miterlimit="10"/>
<path d="M63.68 13H62.91V7.74H61.23V7H65.35V7.74H63.68V13Z" fill="white" stroke="white" stroke-width="0.2" stroke-miterlimit="10"/>
<path d="M70.65 7L68.38 12.06C68.3249 12.2629 68.2264 12.4514 68.0913 12.6124C67.9562 12.7734 67.7876 12.9031 67.5974 12.9925C67.4071 13.0819 67.1997 13.1289 66.9895 13.1302C66.7793 13.1315 66.5713 13.0871 66.38 13L66.58 12.29C66.7024 12.3588 66.8397 12.3965 66.98 12.4C67.128 12.4074 67.2746 12.369 67.4 12.29C67.5215 12.1889 67.6145 12.058 67.67 11.91L67.89 11.43L65.87 7H66.78L68.26 10.44L69.74 7H70.65Z" fill="white" stroke="white" stroke-width="0.2" stroke-miterlimit="10"/>
<path d="M71.52 13V7H75.86V13H75.09V7.74H72.29V13H71.52Z" fill="white" stroke="white" stroke-width="0.2" stroke-miterlimit="10"/>
<path d="M77.23 13V7H78V9.57H81V7H81.78V13H81V10.29H78V13H77.23Z" fill="white" stroke="white" stroke-width="0.2" stroke-miterlimit="10"/>
<path d="M88.06 12.22C87.7712 12.5091 87.4283 12.7384 87.0508 12.8948C86.6733 13.0513 86.2687 13.1318 85.86 13.1318C85.4514 13.1318 85.0468 13.0513 84.6693 12.8948C84.2918 12.7384 83.9489 12.5091 83.66 12.22C83.3674 11.9308 83.1373 11.5844 82.9842 11.2025C82.8311 10.8206 82.7582 10.4113 82.77 9.99999C82.7582 9.5887 82.8311 9.17937 82.9842 8.79746C83.1373 8.41555 83.3674 8.06922 83.66 7.77999C83.948 7.49124 84.2901 7.26214 84.6668 7.10583C85.0434 6.94951 85.4472 6.86905 85.855 6.86905C86.2628 6.86905 86.6666 6.94951 87.0433 7.10583C87.42 7.26214 87.7621 7.49124 88.05 7.77999C88.3427 8.06922 88.5727 8.41555 88.7258 8.79746C88.8789 9.17937 88.9519 9.5887 88.94 9.99999C88.9532 10.4106 88.8818 10.8195 88.7305 11.2013C88.5791 11.5832 88.3509 11.9299 88.06 12.22ZM84.23 11.72C84.4396 11.9403 84.6928 12.1145 84.9735 12.2316C85.2541 12.3487 85.556 12.406 85.86 12.4C86.1638 12.4042 86.4652 12.346 86.7456 12.2291C87.026 12.1121 87.2793 11.9388 87.49 11.72C87.7102 11.4925 87.8822 11.2229 87.9956 10.9274C88.109 10.6318 88.1616 10.3164 88.15 9.99999C88.1616 9.68362 88.109 9.36819 87.9956 9.07262C87.8822 8.77705 87.7102 8.50745 87.49 8.27999C87.2793 8.06115 87.026 7.88788 86.7456 7.77092C86.4652 7.65395 86.1638 7.59578 85.86 7.59999C85.556 7.59396 85.2541 7.65131 84.9735 7.76839C84.6928 7.88546 84.4396 8.0597 84.23 8.27999C84.0066 8.50558 83.8319 8.77463 83.7166 9.07049C83.6014 9.36634 83.5481 9.68271 83.56 9.99999C83.5481 10.3173 83.6014 10.6336 83.7166 10.9295C83.8319 11.2254 84.0066 11.4944 84.23 11.72Z" fill="white" stroke="white" stroke-width="0.2" stroke-miterlimit="10"/>
<path d="M92.09 13V7H94.26C94.7098 6.99548 95.1451 7.15959 95.48 7.46C95.6465 7.60545 95.7794 7.7855 95.8692 7.98758C95.959 8.18965 96.0036 8.40889 96 8.63C96.0024 8.89938 95.9259 9.16357 95.78 9.39C95.6324 9.60471 95.4281 9.77432 95.19 9.88C95.4773 9.97611 95.7284 10.1575 95.91 10.4C96.1008 10.6419 96.2031 10.9419 96.2 11.25C96.2051 11.4805 96.1593 11.7094 96.066 11.9202C95.9727 12.1311 95.8341 12.3188 95.66 12.47C95.3129 12.793 94.854 12.9686 94.38 12.96L92.09 13ZM92.86 9.57H94.26C94.391 9.57758 94.522 9.55543 94.6432 9.50521C94.7644 9.45499 94.8727 9.378 94.96 9.28C95.1295 9.11383 95.2266 8.88739 95.23 8.65C95.2394 8.41187 95.1571 8.17919 95 8C94.9159 7.90674 94.8122 7.83326 94.6964 7.78485C94.5805 7.73644 94.4554 7.71429 94.33 7.72H92.86V9.57ZM92.86 12.26H94.41C94.547 12.2653 94.6835 12.2403 94.8097 12.1867C94.9359 12.1331 95.0487 12.0523 95.14 11.95C95.3126 11.7656 95.4091 11.5226 95.41 11.27C95.4039 11.0195 95.304 10.7804 95.13 10.6C95.0336 10.4988 94.917 10.4189 94.7878 10.3655C94.6586 10.3121 94.5197 10.2864 94.38 10.29H92.86V12.26Z" fill="white" stroke="white" stroke-width="0.2" stroke-miterlimit="10"/>
<defs>
<linearGradient id="paint0_linear" x1="21.7084" y1="8.68319" x2="4.87989" y2="25.3422" gradientUnits="userSpaceOnUse">
<stop stop-color="#00A0FF"/>
<stop offset="0.00657445" stop-color="#00A1FF"/>
<stop offset="0.2601" stop-color="#00BEFF"/>
<stop offset="0.5122" stop-color="#00D2FF"/>
<stop offset="0.7604" stop-color="#00DFFF"/>
<stop offset="1" stop-color="#00E3FF"/>
</linearGradient>
<linearGradient id="paint1_linear" x1="33.8343" y1="19.9512" x2="9.63742" y2="19.9512" gradientUnits="userSpaceOnUse">
<stop stop-color="#FFE000"/>
<stop offset="0.4087" stop-color="#FFBD00"/>
<stop offset="0.7754" stop-color="#FFA500"/>
<stop offset="1" stop-color="#FF9C00"/>
</linearGradient>
<linearGradient id="paint2_linear" x1="24.8496" y1="22.2929" x2="2.12412" y2="45.0238" gradientUnits="userSpaceOnUse">
<stop stop-color="#FF3A44"/>
<stop offset="1" stop-color="#C31162"/>
</linearGradient>
<linearGradient id="paint3_linear" x1="7.34086" y1="0.116058" x2="17.5342" y2="10.2664" gradientUnits="userSpaceOnUse">
<stop stop-color="#32A071"/>
<stop offset="0.0685" stop-color="#2DA771"/>
<stop offset="0.4762" stop-color="#15CF74"/>
<stop offset="0.8009" stop-color="#06E775"/>
<stop offset="1" stop-color="#00F076"/>
</linearGradient>
</defs>
</svg>
