<svg width="42" height="26" viewBox="0 0 42 26" fill="none" xmlns="http://www.w3.org/2000/svg"><path d="M15.67 2.585h11.386v20.44H15.67V2.585z" fill="#FF6A13"/><path d="M16.083 12.997a12.971 12.971 0 0 1 4.97-10.218C15.718-1.41 8.056-.8 3.453 4.18a12.988 12.988 0 0 0 0 17.637c4.603 4.98 12.265 5.59 17.6 1.402a12.971 12.971 0 0 1-4.97-10.222z" fill="#EF0812"/><path d="M41.946 13.002c0 4.977-2.845 9.516-7.327 11.691a13.024 13.024 0 0 1-13.728-1.473A12.993 12.993 0 0 0 25.863 13c0-3.988-1.833-7.756-4.972-10.22a13.024 13.024 0 0 1 13.73-1.472 12.997 12.997 0 0 1 7.325 11.694z" fill="#F79E1B"/><path fill-rule="evenodd" clip-rule="evenodd" d="M42 20.686v.506l-.094.003v-.383l-.142.33h-.097l-.141-.33v.38h-.076v-.506h.134l.152.361.151-.36H42zm-.835.087v.419l-.083.003v-.419h-.17v-.086h.423v.083h-.17z" fill="#F79E1B"/></svg>