<?xml version="1.0" encoding="UTF-8"?>
<svg width="108" height="56" viewBox="0 0 108 56" fill="none" xmlns="http://www.w3.org/2000/svg">
<path d="M31.791 22.7704L56.6765 8.10361L66.775 20.2458L105.606 4.25658" stroke="#F36B2B" stroke-width="0.94382" stroke-miterlimit="10" stroke-linecap="round" stroke-linejoin="round"/>
<path d="M35.7584 39.2405C46.2489 39.2405 54.7531 30.7363 54.7531 20.2458C54.7531 9.75531 46.2489 1.25108 35.7584 1.25108C25.2679 1.25108 16.7637 9.75531 16.7637 20.2458C16.7637 30.7363 25.2679 39.2405 35.7584 39.2405Z" stroke="#0099B5" stroke-width="1.13258" stroke-miterlimit="10" stroke-linecap="round" stroke-linejoin="round"/>
<path d="M22.2937 33.7104L18.8073 37.1968" stroke="#0099B5" stroke-width="1.13258" stroke-miterlimit="10" stroke-linecap="round" stroke-linejoin="round"/>
<path d="M17.1759 35.613L1.76999 50.9798L5.08106 54.2993L20.487 38.9325L17.1759 35.613Z" stroke="#0099B5" stroke-width="1.13258" stroke-miterlimit="9.9999" stroke-linecap="round" stroke-linejoin="round"/>
<path d="M35.9989 12.7922C35.6383 12.7922 35.2776 12.5517 35.2776 12.0709V9.42603C35.2776 9.06537 35.518 8.70471 35.9989 8.70471C36.4798 8.70471 36.7202 8.94515 36.7202 9.42603V12.0709C36.6 12.4315 36.3596 12.7922 35.9989 12.7922Z" fill="#0099B5"/>
<path d="M31.9113 13.8742C31.6709 13.8742 31.4304 13.7539 31.3102 13.5135L29.9878 11.2293C29.8676 10.9889 29.8676 10.7484 29.9878 10.508C30.108 10.2676 30.3485 10.1473 30.5889 10.1473C30.8293 10.1473 31.0698 10.2676 31.19 10.508L32.5124 12.7922C32.6326 13.0326 32.6326 13.2731 32.5124 13.5135C32.3922 13.6337 32.1518 13.8742 31.9113 13.8742Z" fill="#0099B5"/>
<path d="M29.026 16.7594C28.9058 16.7594 28.7856 16.7594 28.6653 16.6392L26.3812 15.3168C26.1407 15.1966 26.0205 14.9561 26.0205 14.7157C26.0205 14.4752 26.1407 14.2348 26.3812 14.1146C26.6216 13.9944 26.862 13.9944 27.1025 14.1146L29.3867 15.437C29.6271 15.5572 29.7473 15.9179 29.7473 16.1583C29.6271 16.519 29.2664 16.7594 29.026 16.7594Z" fill="#0099B5"/>
<path d="M27.944 20.7267H25.2991C24.9385 20.7267 24.5778 20.4862 24.5778 20.0054C24.5778 19.5245 24.8183 19.284 25.2991 19.284H27.944C28.3046 19.284 28.6653 19.5245 28.6653 20.0054C28.6653 20.4862 28.3046 20.7267 27.944 20.7267Z" fill="#0099B5"/>
<path d="M29.2664 23.4917C29.6271 23.4917 29.8675 23.7322 29.8675 23.9726C29.9877 24.213 29.8675 24.5737 29.5068 24.6939L27.2227 26.0163C26.9822 26.1366 26.7418 26.1366 26.5013 26.0163C26.2609 25.8961 26.1407 25.6557 26.1407 25.4152C26.1407 25.1748 26.2609 24.9344 26.5013 24.8141L28.7855 23.4917C29.026 23.6119 29.1462 23.4917 29.2664 23.4917Z" fill="#0099B5"/>
<path d="M30.5889 29.9836C30.3485 29.9836 30.108 29.8634 29.9878 29.623C29.8676 29.3825 29.8676 29.1421 29.9878 28.9016L31.3102 26.6175C31.4304 26.377 31.6709 26.2568 31.9113 26.2568C32.1518 26.2568 32.3922 26.377 32.5124 26.6175C32.6326 26.8579 32.6326 27.0983 32.5124 27.3388L31.19 29.623C31.0698 29.8634 30.8293 29.9836 30.5889 29.9836Z" fill="#0099B5"/>
<path d="M35.9989 27.3388C36.3596 27.3388 36.7202 27.5792 36.7202 28.0601V30.7049C36.7202 31.0656 36.4798 31.4262 35.9989 31.4262C35.518 31.4262 35.2776 31.1858 35.2776 30.7049V28.0601C35.3978 27.6994 35.6383 27.3388 35.9989 27.3388Z" fill="#0099B5"/>
<path d="M41.2885 29.9836C41.0481 29.9836 40.8076 29.8634 40.6874 29.623L39.365 27.3388C39.2448 27.0983 39.2448 26.8579 39.365 26.6175C39.4852 26.377 39.7256 26.2568 39.9661 26.2568C40.2065 26.2568 40.447 26.377 40.5672 26.6175L41.8896 28.9016C42.0098 29.1421 42.0098 29.3825 41.8896 29.623C41.7694 29.8634 41.5289 29.9836 41.2885 29.9836Z" fill="#0099B5"/>
<path d="M45.1355 26.1366C45.0153 26.1366 44.8951 26.1366 44.7748 26.0164L42.4907 24.6939C42.2502 24.5737 42.13 24.3333 42.13 24.0929C42.13 23.8524 42.2502 23.612 42.4907 23.4918C42.7311 23.3715 42.9715 23.3715 43.212 23.4918L45.4962 24.8142C45.7366 24.9344 45.8568 25.295 45.8568 25.5355C45.7366 25.8961 45.4962 26.1366 45.1355 26.1366Z" fill="#0099B5"/>
<path d="M46.5781 20.7267H43.9332C43.5726 20.7267 43.2119 20.4862 43.2119 20.0054C43.2119 19.5245 43.4524 19.284 43.9332 19.284H46.5781C46.9387 19.284 47.2994 19.5245 47.2994 20.0054C47.2994 20.4862 46.9387 20.7267 46.5781 20.7267Z" fill="#0099B5"/>
<path d="M42.8513 16.7594C42.4906 16.7594 42.2502 16.519 42.2502 16.2786C42.13 16.0381 42.2502 15.6775 42.6108 15.5572L44.895 14.2348C45.1355 14.1146 45.3759 14.1146 45.6163 14.2348C45.8568 14.355 45.977 14.5955 45.977 14.8359C45.977 15.0764 45.8568 15.3168 45.6163 15.437L43.3322 16.7594C43.0917 16.7594 42.9715 16.7594 42.8513 16.7594Z" fill="#0099B5"/>
<path d="M39.9661 13.8742C39.7256 13.8742 39.4852 13.7539 39.365 13.5135C39.2448 13.2731 39.2448 13.0326 39.365 12.7922L40.6874 10.508C40.8076 10.2676 41.0481 10.1473 41.2885 10.1473C41.5289 10.1473 41.7694 10.2676 41.8896 10.508C42.0098 10.7484 42.0098 10.9889 41.8896 11.2293L40.5672 13.5135C40.447 13.6337 40.2065 13.8742 39.9661 13.8742Z" fill="#0099B5"/>
<path d="M35.9987 28.1803C40.4472 28.1803 44.0534 24.5741 44.0534 20.1256C44.0534 15.6771 40.4472 12.0709 35.9987 12.0709C31.5502 12.0709 27.944 15.6771 27.944 20.1256C27.944 24.5741 31.5502 28.1803 35.9987 28.1803Z" fill="#0099B5"/>
<path d="M35.1573 17.8414C35.8876 17.8414 36.4797 17.2493 36.4797 16.519C36.4797 15.7886 35.8876 15.1966 35.1573 15.1966C34.4269 15.1966 33.8349 15.7886 33.8349 16.519C33.8349 17.2493 34.4269 17.8414 35.1573 17.8414Z" fill="white"/>
<path d="M38.8839 23.1311C40.0127 23.1311 40.9277 22.2161 40.9277 21.0873C40.9277 19.9586 40.0127 19.0436 38.8839 19.0436C37.7552 19.0436 36.8402 19.9586 36.8402 21.0873C36.8402 22.2161 37.7552 23.1311 38.8839 23.1311Z" fill="white"/>
<path d="M33.2337 23.4917C33.6321 23.4917 33.955 23.1688 33.955 22.7704C33.955 22.372 33.6321 22.0491 33.2337 22.0491C32.8353 22.0491 32.5124 22.372 32.5124 22.7704C32.5124 23.1688 32.8353 23.4917 33.2337 23.4917Z" fill="white"/>
<path d="M56.7969 10.508C57.9256 10.508 58.8406 9.59301 58.8406 8.46428C58.8406 7.33556 57.9256 6.42055 56.7969 6.42055C55.6682 6.42055 54.7531 7.33556 54.7531 8.46428C54.7531 9.59301 55.6682 10.508 56.7969 10.508Z" fill="#F36B2B"/>
<path d="M66.8953 21.9289C68.024 21.9289 68.939 21.0139 68.939 19.8851C68.939 18.7564 68.024 17.8414 66.8953 17.8414C65.7665 17.8414 64.8515 18.7564 64.8515 19.8851C64.8515 21.0139 65.7665 21.9289 66.8953 21.9289Z" fill="#F36B2B"/>
<path d="M105.726 6.42052C106.855 6.42052 107.77 5.5055 107.77 4.37678C107.77 3.24805 106.855 2.33304 105.726 2.33304C104.597 2.33304 103.682 3.24805 103.682 4.37678C103.682 5.5055 104.597 6.42052 105.726 6.42052Z" fill="#F36B2B"/>
<path d="M28.3048 54.6287H26.3813V49.8199L24.2173 53.3063H23.9769L21.8129 49.8199V54.6287H20.1299V46.4537H22.0534L24.2173 50.0603L26.3813 46.4537H28.3048V54.6287Z" fill="#F36B2B"/>
<path d="M30.4687 50.5412C30.4687 48.1368 32.3922 46.3335 34.6764 46.3335C37.0808 46.3335 38.8841 48.1368 38.8841 50.5412C38.8841 52.9456 37.0808 54.7489 34.7966 54.7489C32.3922 54.7489 30.4687 52.9456 30.4687 50.5412ZM37.0808 50.5412C37.0808 49.0985 35.9988 48.1368 34.6764 48.1368C33.354 48.1368 32.272 49.0985 32.272 50.5412C32.272 51.9838 33.354 52.9456 34.6764 52.9456C36.1191 52.9456 37.0808 51.9838 37.0808 50.5412Z" fill="#F36B2B"/>
<path d="M47.5399 46.4537V54.6287H45.6164V51.3827H43.0918V54.6287H41.1682V46.4537H43.0918V49.5794H45.6164V46.4537H47.5399Z" fill="#F36B2B"/>
<path d="M54.6329 50.1805L51.5072 54.6287H50.0645V46.4537H51.9881V50.9019L55.1138 46.4537H56.5564V54.6287H54.6329V50.1805Z" fill="#F36B2B"/>
<path d="M64.4909 48.257H62.4472V54.6287H60.5237V48.257H58.4799V46.4537H64.4909V48.257Z" fill="#F36B2B"/>
<path d="M65.693 50.5412C65.693 48.1368 67.6165 46.3335 69.9007 46.3335C72.3051 46.3335 74.1084 48.1368 74.1084 50.5412C74.1084 52.9456 72.3051 54.7489 69.9007 54.7489C67.6165 54.7489 65.693 52.9456 65.693 50.5412ZM72.3051 50.5412C72.3051 49.0985 71.2231 48.1368 69.9007 48.1368C68.5783 48.1368 67.4963 49.0985 67.4963 50.5412C67.4963 51.9838 68.5783 52.9456 69.9007 52.9456C71.2231 52.9456 72.3051 51.9838 72.3051 50.5412Z" fill="#F36B2B"/>
<path d="M82.2835 49.2188C82.2835 50.7816 81.0813 51.9838 79.3982 51.9838H78.196V54.5084H76.2725V46.3335H79.3982C81.0813 46.4537 82.2835 47.6559 82.2835 49.2188ZM80.4802 49.2188C80.4802 48.6177 80.1196 48.1368 79.5185 48.1368H78.3163V50.1805H79.5185C79.9993 50.3007 80.4802 49.8199 80.4802 49.2188Z" fill="#F36B2B"/>
<path d="M89.0158 50.1805L85.8901 54.6287H84.4474V46.4537H86.2507V50.9019L89.3764 46.4537H90.8191V54.6287H88.8955V50.1805H89.0158Z" fill="#F36B2B"/>
<path d="M99.7153 46.4537V54.6287H97.7918V51.3827H95.2672V54.6287H93.4639V46.4537H95.3874V49.5794H97.912V46.4537H99.7153Z" fill="#F36B2B"/>
<path d="M106.929 48.257H104.163V54.6287H102.24V46.4537H106.929V48.257Z" fill="#F36B2B"/>
</svg>
