<svg width="100" height="100" xmlns="http://www.w3.org/2000/svg">

 <g>
  <title>background</title>
  <rect fill="none" id="canvas_background" height="402" width="582" y="-1" x="-1"/>
 </g>
 <g>
  <title>Layer 1</title>
  <circle stroke="null" id="svg_2" r="49.700091" fill="#7C519B" cy="49.999003" cx="49.999997"/>
  <path stroke="null" id="svg_4" fill="#FFFFFF" d="m49.311808,27.168428c0.361517,-0.332342 0.617751,-0.379276 1.877354,-0.339953c0.660879,0.022833 1.622389,0.098942 2.150078,0.161097c2.661276,0.332342 4.813891,0.974194 7.170731,2.123439c2.320054,1.13656 3.806716,2.209696 5.771595,4.164428c1.838031,1.845642 2.860428,3.243509 3.943712,5.413883c1.508226,3.027867 2.366988,6.62782 2.514132,10.589291c0.053276,1.352202 0.015222,1.655369 -0.293019,2.038451c-0.588576,0.750942 -1.881159,0.62663 -2.320054,-0.215642c-0.14207,-0.277798 -0.181393,-0.517541 -0.22579,-1.600825c-0.077377,-1.660443 -0.192809,-2.732311 -0.42621,-4.016015c-0.913307,-5.026996 -3.324692,-9.043011 -7.177073,-11.923734c-3.211797,-2.40758 -6.528879,-3.584731 -10.874699,-3.837159c-1.47144,-0.08372 -1.726404,-0.138265 -2.058747,-0.394498c-0.617751,-0.488366 -0.649463,-1.63 -0.052008,-2.162762zm9.21933,9.947439c-1.555159,-0.925992 -3.852381,-1.612241 -5.946645,-1.783486c-0.761089,-0.062156 -1.177152,-0.215642 -1.46256,-0.547984c-0.441432,-0.502319 -0.487097,-1.182226 -0.1167,-1.7467c0.402109,-0.624093 1.01986,-0.725572 2.868039,-0.449043c4.695922,0.688786 8.332661,2.86677 10.713602,6.404567c1.342054,1.991517 2.175447,4.333136 2.462124,6.843462c0.097673,0.91965 0.097673,2.594046 -0.011416,2.871844c-0.097673,0.262576 -0.424942,0.619019 -0.702739,0.766163c-0.30063,0.153486 -0.945019,0.138265 -1.300194,-0.046934c-0.59365,-0.299362 -0.772506,-0.780117 -0.772506,-2.076506c0,-2.001665 -0.517541,-4.109883 -1.414358,-5.744957c-1.022397,-1.87228 -2.506521,-3.414755 -4.316645,-4.490428zm2.614342,10.296271c-0.455385,0.416062 -1.300194,0.431284 -1.811393,0.039323c-0.369128,-0.280335 -0.487097,-0.574623 -0.572086,-1.367424c-0.098942,-1.057914 -0.28414,-1.801245 -0.603798,-2.487494c-0.679907,-1.458755 -1.878622,-2.217307 -3.905657,-2.464661c-0.950093,-0.114163 -1.238039,-0.223253 -1.54628,-0.587307c-0.565743,-0.671027 -0.347564,-1.759385 0.433821,-2.162762c0.293019,-0.143339 0.414794,-0.161097 1.066794,-0.121774c0.40084,0.022833 0.997027,0.091331 1.314148,0.161097c1.523447,0.324731 2.692988,0.904428 3.688747,1.838031c1.286241,1.213938 1.990249,2.680303 2.299759,4.788521c0.2093,1.376303 0.123043,1.916677 -0.364054,2.364451zm11.554606,20.290644c-0.569549,1.473976 -2.798272,4.239268 -4.353431,5.420225c-1.406747,1.065525 -2.406311,1.473976 -3.722996,1.538669c-1.080747,0.052008 -1.52979,-0.04186 -2.913704,-0.611408c-10.860746,-4.4714 -19.53336,-11.143618 -26.418682,-20.313476c-3.594879,-4.788521 -6.333532,-9.753361 -8.208349,-14.907205c-1.087089,-3.002498 -1.140366,-4.307766 -0.244817,-5.846435c0.388156,-0.646926 2.033377,-2.254093 3.235898,-3.148373c1.995323,-1.484124 2.916241,-2.032109 3.648155,-2.188132c0.504856,-0.109089 1.377572,-0.022833 1.934436,0.178856c0.268918,0.091331 0.690054,0.30951 0.927261,0.462996c1.47144,0.974194 5.562295,6.20161 6.899276,8.812147c0.766163,1.491735 1.022397,2.594046 0.781385,3.413486c-0.248623,0.879058 -0.659611,1.343323 -2.490031,2.819836c-0.73572,0.594918 -1.425774,1.20379 -1.532327,1.367424c-0.279066,0.40084 -0.503587,1.189836 -0.503587,1.744163c0.007611,1.291315 0.844809,3.629128 1.942046,5.430373c0.85242,1.397868 2.37333,3.188965 3.884093,4.564c1.770801,1.622389 3.332303,2.727237 5.098031,3.599953c2.264241,1.127681 3.650692,1.411821 4.662941,0.941214c0.256233,-0.114163 0.527689,-0.270187 0.61014,-0.339953c0.077377,-0.069767 0.672296,-0.795338 1.324296,-1.598288c1.251992,-1.575455 1.539938,-1.83042 2.397432,-2.123439c1.092163,-0.371665 2.204622,-0.272724 3.325961,0.299362c0.85242,0.441432 2.70821,1.593214 3.905657,2.425338c1.579261,1.104848 4.952155,3.854918 5.408809,4.402902c0.806755,0.990685 0.946288,2.25663 0.402109,3.655766z"/>
 </g>
</svg>