<svg width="60" height="20" viewBox="0 0 60 20" fill="none" xmlns="http://www.w3.org/2000/svg"><path d="M25.818 19.286h-4.394L24.172 0h4.395l-2.749 19.286zM44.283.824C43.297.433 41.733 0 39.798 0c-4.938 0-8.416 2.636-8.437 6.405-.041 2.78 2.49 4.325 4.382 5.253 1.935.947 2.593 1.565 2.593 2.41-.02 1.297-1.564 1.895-3.003 1.895-1.997 0-3.066-.308-4.692-1.03l-.658-.31-.7 4.347c1.173.535 3.333 1.01 5.577 1.03 5.246 0 8.662-2.595 8.703-6.612.02-2.204-1.317-3.893-4.198-5.272-1.748-.886-2.82-1.484-2.82-2.39.021-.824.906-1.668 2.88-1.668 1.626-.041 2.82.35 3.726.741l.452.206.68-4.18z" fill="#00579F"/><path fill-rule="evenodd" clip-rule="evenodd" d="M52.451 0h3.696L60 19.286h-4.424s-.432-2.216-.57-2.893h-6.133l-1.003 2.893h-5.013L49.954 1.6C50.446.35 51.312 0 52.451 0zm-.295 7.057s-1.514 4.288-1.907 5.396h3.97c-.196-.964-1.1-5.58-1.1-5.58l-.334-1.662c-.141.428-.344 1.016-.481 1.413-.093.269-.156.45-.148.433z" fill="#00579F"/><path d="M16.501 0L11.94 13.165l-.499-2.67C10.597 7.415 7.951 4.067 5 2.403l4.18 16.883h4.926L21.428 0H16.5z" fill="#00579F"/><path d="M8.129 0H.08L0 .398c6.277 1.636 10.435 5.578 12.143 10.316l-1.75-9.057C10.105.398 9.22.042 8.13 0z" fill="#FAA61A"/></svg>